<?xml version="1.0" standalone="no"?>
<!DOCTYPE svg PUBLIC "-//W3C//DTD SVG 20010904//EN"
 "http://www.w3.org/TR/2001/REC-SVG-20010904/DTD/svg10.dtd">
<svg version="1.0" xmlns="http://www.w3.org/2000/svg"
 width="1085.000000pt" height="1085.000000pt" viewBox="0 0 1085.000000 1085.000000"
 preserveAspectRatio="xMidYMid meet">
<metadata>
Created by potrace 1.14, written by Peter Selinger 2001-2017
</metadata>
<g transform="translate(0.000000,1085.000000) scale(0.100000,-0.100000)"
fill="#000000" stroke="none">
<path d="M2607 10634 c-1 -1 -42 -5 -92 -8 -49 -4 -99 -9 -110 -11 -11 -3 -38
-7 -60 -10 -157 -21 -506 -116 -539 -146 -6 -5 -16 -9 -24 -9 -13 0 -278 -127
-317 -152 -11 -7 -56 -35 -100 -63 -71 -43 -181 -120 -195 -135 -3 -3 -39 -33
-80 -67 -172 -139 -396 -400 -526 -613 -63 -104 -160 -300 -194 -395 -26 -70
-88 -270 -94 -302 -3 -13 -12 -59 -21 -104 -30 -147 -43 -308 -40 -504 2 -104
6 -208 9 -230 3 -22 8 -60 11 -85 4 -25 8 -54 10 -65 3 -11 7 -32 9 -47 26
-163 116 -433 201 -606 57 -118 135 -256 146 -260 5 -2 9 -8 9 -13 0 -14 119
-177 189 -259 337 -394 772 -667 1276 -800 39 -10 84 -21 100 -24 95 -18 145
-26 185 -31 25 -3 61 -8 80 -12 69 -11 2730 -11 2731 1 5 83 -1 1784 -6 1817
-24 142 -131 286 -260 349 -122 60 -68 57 -1210 57 -954 1 -1054 2 -1089 17
-64 27 -103 62 -131 120 -69 142 3 303 157 347 19 5 458 9 1063 9 603 1 1051
5 1080 10 28 6 82 25 120 44 138 68 237 195 271 348 4 17 8 1651 5 1803 l-1
30 -1281 0 c-704 0 -1281 -1 -1282 -1z"/>
<path d="M5670 10565 c-4 -454 0 -4466 4 -4483 41 -190 165 -329 343 -386 l76
-23 1141 2 c628 2 1159 6 1181 9 22 4 96 16 165 27 131 22 299 67 441 119 99
36 342 155 414 201 28 18 75 49 105 68 166 108 406 329 543 501 56 70 126 172
204 295 30 48 136 262 162 328 92 233 146 454 168 682 10 103 10 443 -1 515
-4 30 -10 73 -12 95 -22 187 -105 468 -203 680 -48 105 -168 318 -183 323 -4
2 -8 8 -8 13 0 10 -97 142 -165 225 -65 79 -247 256 -336 328 -262 210 -568
369 -874 454 -152 43 -229 59 -360 76 -22 3 -65 8 -95 12 -30 4 -652 8 -1382
8 l-1328 1 0 -70z m2562 -2180 c137 -47 202 -216 132 -345 -31 -57 -68 -90
-130 -116 -35 -15 -128 -17 -1029 -16 -544 0 -1001 1 -1015 1 l-25 1 1 243 c1
133 2 243 3 245 0 1 455 2 1009 2 881 0 1014 -2 1054 -15z"/>
<path d="M211 3878 c0 -733 5 -1338 10 -1383 5 -44 11 -96 13 -115 4 -32 18
-124 32 -195 55 -304 241 -724 421 -955 7 -8 26 -33 43 -55 123 -157 265 -297
425 -421 52 -40 174 -124 179 -124 3 0 24 -13 48 -29 110 -73 332 -175 511
-235 225 -75 444 -119 706 -141 143 -13 439 -7 551 10 14 2 61 9 105 15 370
54 779 208 1085 408 353 230 580 502 716 853 34 89 78 244 88 315 4 22 9 51
11 64 12 62 17 190 20 505 1 187 5 349 8 360 3 11 6 23 6 26 3 21 68 101 100
122 119 79 272 39 349 -92 l27 -46 2 -350 c2 -443 4 -475 48 -670 43 -191 139
-411 253 -580 180 -265 434 -477 777 -648 158 -79 323 -144 460 -182 28 -8 75
-21 105 -30 30 -8 69 -17 85 -20 17 -3 53 -10 80 -15 28 -6 61 -12 74 -15 39
-7 171 -24 231 -30 58 -5 414 -6 465 -1 66 6 171 19 190 22 10 2 37 6 60 9 81
12 235 46 331 74 690 200 1237 645 1537 1251 70 140 85 176 117 270 12 36 25
72 28 80 8 24 41 139 47 170 25 113 36 166 39 193 9 68 16 113 23 147 4 19 8
644 10 1388 l4 1352 -1191 0 c-1127 0 -1190 -1 -1190 -17 -1 -10 -1 -574 -2
-1253 0 -1000 -3 -1244 -14 -1280 -17 -57 -73 -124 -128 -152 -30 -16 -59 -22
-106 -22 -77 0 -126 20 -180 76 -59 62 -69 111 -70 348 -2 275 -6 332 -40 508
-156 822 -763 1472 -1585 1697 -110 30 -156 40 -220 50 -11 2 -47 8 -80 13
-208 37 -584 37 -815 1 -115 -18 -123 -19 -225 -44 -607 -146 -1114 -517
-1405 -1030 -130 -227 -236 -536 -265 -770 -4 -27 -8 -61 -11 -75 -8 -50 -16
-229 -17 -405 -2 -166 -4 -184 -25 -227 -44 -89 -114 -137 -209 -144 -98 -7
-193 52 -236 146 -21 45 -21 51 -23 1305 -1 693 -2 1263 -3 1268 0 4 -537 7
-1191 7 l-1190 0 1 -1302z"/>
</g>
</svg>
